# xmcd
#
# Track frame offsets: 
#        150
#        9716
#        20497
#        29697
#        38277
#        49640
#        59527
#        68702
#        77888
#        86736
#        96613
#        106238
#
# Disc length: 1555 seconds
#
# Revision: 1
# Processed by: cddbd v1.5.2PL0 Copyright (c) Steve Scherf et al.
# Submitted via: ExactAudioCopyFreeDBPlugin 1.0
#
DISCID=9906110c
DTITLE=Loretta Lynn - The Best of Loretta Lynn:  The Christmas Collect
DTITLE=ion (20th Century Masters)
DYEAR=2005
DGENRE=Holiday
TTITLE0=Country Christmas
TTITLE1=Away in a Manger
TTITLE2=Stana Claus is Comin' to Town
TTITLE3=Silver Bells
TTITLE4=Blue Christmas
TTITLE5=It Won't Seem Like Christmas
TTITLE6=To Heck With Ole Santa Claus
TTITLE7=White Christmas
TTITLE8=Frosty the Snowman
TTITLE9=Christmas Without Daddy
TTITLE10=I Won't Decorate Your Christmas Tree
TTITLE11=Gift of the Blues
EXTD=
EXTT0=
EXTT1=
EXTT2=
EXTT3=
EXTT4=
EXTT5=
EXTT6=
EXTT7=
EXTT8=
EXTT9=
EXTT10=
EXTT11=
PLAYORDER=
